<svg xmlns="http://www.w3.org/2000/svg" viewBox="0 0 2328 1455"><defs><style>.cls-1{fill:none;}.cls-2{fill:#aff9d9;}</style></defs><title>Asset 34</title><g id="Layer_2" data-name="Layer 2"><g id="Clouds"><rect class="cls-1" width="2328" height="1455"/><path class="cls-2" d="M1602,326.5a23.52,23.52,0,0,1,4.17.37C1610,315.42,1622.79,307,1638,307c10.38,0,19.64,3.93,25.69,10.06a42.86,42.86,0,0,1,14.81-2.56c8.68,0,16.48,2.41,22,6.24C1706.8,304,1724.79,292,1746,292c16.13,0,30.39,7,39.09,17.64A42.46,42.46,0,0,1,1800,307c12,0,22.5,4.77,28.69,12,20.62,0,37.31,6.74,37.31,15H1588.5C1588.5,329.86,1594.54,326.5,1602,326.5Z"/><path class="cls-2" d="M1484.22,142.13a11.17,11.17,0,0,0-2.81.35c-1.83-3.61-6.38-6.16-11.72-6.16-4.77,0-8.91,2-11.05,5a35,35,0,0,0-9.29-1.17,32.84,32.84,0,0,0-10.65,1.6c-2.53-5.43-9.81-9.35-18.41-9.35a26.87,26.87,0,0,0-6.37.77c-5.52-9.63-17.08-16.27-30.44-16.27-16.13,0-29.62,9.66-33.05,22.6-2.41-.21-5-.32-7.63-.32-13.91,0-25.19,3-25.19,6.78H1491C1491,143.86,1488,142.13,1484.22,142.13Z"/><path class="cls-2" d="M331.89,387a20.25,20.25,0,0,1,5.09.64c3.32-6.54,11.58-11.18,21.25-11.18,8.64,0,16.16,3.7,20,9.14a63.38,63.38,0,0,1,16.85-2.12,59.55,59.55,0,0,1,19.32,2.9c4.59-9.84,17.79-16.95,33.38-16.95a48.72,48.72,0,0,1,11.55,1.39c10-17.47,31-29.49,55.2-29.49,29.25,0,53.71,17.52,59.93,41,4.37-.37,9-.58,13.84-.58,25.22,0,45.67,5.5,45.67,12.3H319.59C319.59,390.12,325.1,387,331.89,387Z"/><path class="cls-2" d="M241.46,173.93a14.61,14.61,0,0,0-3.67.46c-2.4-4.71-8.35-8.06-15.33-8.06-6.23,0-11.66,2.67-14.45,6.59a45.7,45.7,0,0,0-12.15-1.53,43,43,0,0,0-13.93,2.09c-3.31-7.09-12.83-12.22-24.07-12.22a35.14,35.14,0,0,0-8.33,1C142.31,149.67,127.2,141,109.73,141,88.63,141,71,153.63,66.51,170.55c-3.15-.27-6.5-.42-10-.42-18.19,0-32.93,4-32.93,8.87H250.33C250.33,176.2,246.36,173.93,241.46,173.93Z"/><path class="cls-2" d="M998.17,198.54a17.12,17.12,0,0,0-3,.27c-2.78-8.33-12.1-14.46-23.17-14.46a26.27,26.27,0,0,0-18.7,7.32,31.2,31.2,0,0,0-10.78-1.86,28.22,28.22,0,0,0-16,4.54c-4.62-12.15-17.71-20.92-33.15-20.92-11.74,0-22.12,5.07-28.46,12.84A30.9,30.9,0,0,0,854,184.35c-8.71,0-16.38,3.47-20.88,8.74-15,0-27.16,4.91-27.16,10.92h202C1008,201,1003.6,198.54,998.17,198.54Z"/><path class="cls-2" d="M2308.14,124.79a25.76,25.76,0,0,0-4.57.4c-4.19-12.54-18.2-21.76-34.86-21.76-11.37,0-21.51,4.3-28.13,11a46.94,46.94,0,0,0-16.22-2.8c-9.51,0-18,2.64-24,6.84-6.95-18.29-26.65-31.48-49.88-31.48-17.67,0-33.28,7.63-42.82,19.33a46.5,46.5,0,0,0-16.33-2.9c-13.1,0-24.64,5.22-31.42,13.14-22.59,0-40.87,7.38-40.87,16.43h303.93C2322.93,128.46,2316.31,124.79,2308.14,124.79Z"/></g></g></svg>