<svg xmlns="http://www.w3.org/2000/svg" viewBox="0 0 2328 1455"><defs><style>.cls-1{fill:none;}.cls-2{fill:#63aedd;}</style></defs><title>Asset 32</title><g id="Layer_2" data-name="Layer 2"><g id="Terrain_Back" data-name="Terrain Back"><rect class="cls-1" width="2328" height="1455"/><polygon id="Terrain_Back-2" data-name="Terrain Back" class="cls-2" points="1502 1167 1490 1159.89 1473 1156.34 1461 1151.01 1456 1139.46 1441 1127.03 1426 1107 1407 1105 1393 1087 1367 1089 1351 1082 1329 1076 1314 1088 1288 1091 1271 1077 1255 1077 1239 1068 1227 1062 1214 1055 1203 1044 1183 1038 1178 1030.21 1170 1029.32 1164 1022 1147 1019 1137 1031 1133 1041 1115 1050 1100 1054 1091 1063 1082 1073 1059 1076 1046 1083 1030 1082 1013 1077 998 1074 974 1086 950 1104 939 1113 921 1114 893 1167 0 1167 0 1455 2328 1455 2328 1167 1502 1167"/></g></g></svg>