<svg xmlns="http://www.w3.org/2000/svg" viewBox="0 0 2328 1455"><defs><style>.cls-1{fill:none;}.cls-2{fill:#63aedd;}.cls-3{fill:#3b729b;}</style></defs><title>Asset 27</title><g id="Layer_2" data-name="Layer 2"><g id="Bridge_Front" data-name="Bridge Front"><rect class="cls-1" width="2328" height="1455"/><path class="cls-2" d="M921.4,778H910.6c-39.38,0-63.32,26.57-63.6,58.4V1455h12V836.4c-.26-30.27,36.3-56,73-58.4C930.11,777.88,923.33,778,921.4,778Z"/><path class="cls-2" d="M1416.2,778H1409c-1.93,0-13.11.88-15,1,36.7,2.36,75.26,27.13,75,57.4V1455h12V836.4C1480.72,804.57,1455.58,778,1416.2,778Z"/><path class="cls-3" d="M1578,744H750v711h97V836c0-31.85,32.91-57.67,73.5-57.67h0c40.59,0,73.5,25.82,73.5,57.67v619h97V836c0-31.85,32.91-57.67,73.5-57.67h0c40.59,0,73.5,25.82,73.5,57.67v619h96V836c0-31.85,32.91-57.67,73.5-57.67h0c40.59,0,73.5,25.82,73.5,57.67v619h97V744Z"/></g></g></svg>