<svg xmlns="http://www.w3.org/2000/svg" viewBox="0 0 2328 1455"><defs><style>.cls-1{fill:none;}.cls-2{fill:#166190;}</style></defs><title>Asset 31</title><g id="Layer_2" data-name="Layer 2"><g id="Terrain_Near_Back" data-name="Terrain Near Back"><rect class="cls-1" width="2328" height="1455"/><path id="Terrain_Near_Back-2" data-name="Terrain Near Back" class="cls-2" d="M2234.6,546.28l-28.51-11.62-28.51,5.28-19.18-9.86L2124.79,532l-23.23,7.39L2082,533.08l-21.39,10.58-26.13,6.84-16.89,21.12L2007,592.21l-29,11.62-19,14.26-22.17,28.51-58.6,32.73-20.59,35.9-25.34,12.67-45.4,12.67-9,6.86-13.73,31.68L1752,792.84l-9.5,27.45-37.49,8.45-38.19.88L1644,842.29l-28.83,8.55-13.58,31.75L1590,891l-14,4.22-14,6.86-24.29,6.34L1515.51,928h-20.06l-23.76,16.37L1454.27,947l-13.73,19.92-5.28,19.67s-22.17,17.42-22.42,18-12.42,15.31-12.42,15.31l-3.17,10.56-7.92,4.75-10.38,6.86-8.62,35.37-23.93,23.41L1332,1127.57l-25.08,27L1278,1145l-14,7-35-3-27,8-19,13h-29l-32-9-13-8-28-2-24-14-25-27-27-6-19.89-12.73-5.27-11.59-6.32-11.59-7.38-1.05-9.49-17.48L944,1047.69l-5.27-4.63-12.65-5.54-6.32-25.3-16-17.83-21.9-8.52-13.7-7.38-3.16-13.7-14.76-6.32-12.65-13.7L832.27,930l-8.43-14.76-12.65-8.08-8.43-4.57-13.7-8.43-11.59-24.24L762.7,865.7l-10.54-12.65-20-4.22-6.32-22.14-10.54-11.59-10.54-9.49-7.38-2.11-4.22-3.16-7.38-1.05-6.32-8.43-3.16-5.27-7.38-3.16-4.22-2.11L659.41,774l-5.27-8.43-9.49-2.11-7.38-12.65-12.65-9.49-26.35-7.38L567.7,716l-53.76-6.32-40.05-12.65-40.05-5.27-17.92-22.14-33.73-3.16-37.95-16.86-28.46-6.32-32.68-10.54-35.84-35.84-41.11-12.65-32.68-15.81-39,2.11-20,8.43H79.68L46,570,0,581.11V1455H2328V577.12L2287,555Z"/></g></g></svg>