<svg xmlns="http://www.w3.org/2000/svg" viewBox="0 0 2328 1455"><defs><style>.cls-1{fill:none;}.cls-2{fill:#244759;}.cls-3{fill:#346584;}.cls-4{fill:#70c0c4;}.cls-5{fill:#8ceff1;}.cls-6{fill:#6696b5;}.cls-7{fill:#63b6d3;}.cls-8{fill:#63aedd;}.cls-9{fill:#3b729b;}</style></defs><title>Asset 30</title><g id="Layer_2" data-name="Layer 2"><g id="Train"><rect class="cls-1" width="2328" height="1455"/><g id="Train-2" data-name="Train"><g id="Chain"><rect class="cls-2" x="676" y="728" width="21" height="7"/><rect class="cls-2" x="891" y="728" width="21" height="7"/><rect class="cls-2" x="1106" y="728" width="21" height="7"/><rect class="cls-2" x="246" y="728" width="21" height="7"/><rect class="cls-2" x="461" y="728" width="21" height="7"/><rect class="cls-2" x="31" y="728" width="21" height="7"/></g><g id="Carts"><polygon class="cls-3" points="460.5 693 267.5 693 262 698.5 262 734.5 265.5 738 462.5 738 466 734.5 466 698.5 460.5 693"/><rect class="cls-4" x="267" y="702" width="18" height="10"/><rect class="cls-5" x="289" y="702" width="18" height="10"/><rect class="cls-6" x="311" y="702" width="18" height="10"/><rect class="cls-7" x="333" y="702" width="18" height="10"/><rect class="cls-4" x="355" y="702" width="18" height="10"/><rect class="cls-6" x="377" y="702" width="18" height="10"/><rect class="cls-5" x="399" y="702" width="18" height="10"/><rect class="cls-7" x="421" y="702" width="18" height="10"/><rect class="cls-4" x="443" y="702" width="18" height="10"/><polygon class="cls-8" points="466 701 461 696 267 696 262 701 262 698 267 693 461 693 466 698 466 701"/><rect class="cls-2" x="284" y="731" width="28" height="7"/><circle class="cls-2" cx="291" cy="739" r="5"/><circle class="cls-2" cx="305" cy="739" r="5"/><rect class="cls-2" x="416" y="731" width="28" height="7"/><circle class="cls-2" cx="423" cy="739" r="5"/><circle class="cls-2" cx="437" cy="739" r="5"/><rect class="cls-9" x="262" y="722" width="204" height="4"/><polygon class="cls-3" points="245.5 693 52.5 693 47 698.5 47 734.5 50.5 738 247.5 738 251 734.5 251 698.5 245.5 693"/><rect class="cls-5" x="52" y="702" width="18" height="10"/><rect class="cls-4" x="74" y="702" width="18" height="10"/><rect class="cls-6" x="96" y="702" width="18" height="10"/><rect class="cls-7" x="118" y="702" width="18" height="10"/><rect class="cls-5" x="140" y="702" width="18" height="10"/><rect class="cls-4" x="162" y="702" width="18" height="10"/><rect class="cls-7" x="184" y="702" width="18" height="10"/><rect class="cls-6" x="206" y="702" width="18" height="10"/><rect class="cls-4" x="228" y="702" width="18" height="10"/><polygon class="cls-8" points="251 701 246 696 52 696 47 701 47 698 52 693 246 693 251 698 251 701"/><rect class="cls-2" x="69" y="731" width="28" height="7"/><circle class="cls-2" cx="76" cy="739" r="5"/><circle class="cls-2" cx="90" cy="739" r="5"/><rect class="cls-2" x="201" y="731" width="28" height="7"/><circle class="cls-2" cx="208" cy="739" r="5"/><circle class="cls-2" cx="222" cy="739" r="5"/><rect class="cls-9" x="47" y="722" width="204" height="4"/><polygon class="cls-3" points="675.5 693 482.5 693 477 698.5 477 734.5 480.5 738 677.5 738 681 734.5 681 698.5 675.5 693"/><rect class="cls-6" x="482" y="702" width="18" height="10"/><rect class="cls-7" x="504" y="702" width="18" height="10"/><rect class="cls-4" x="526" y="702" width="18" height="10"/><rect class="cls-7" x="548" y="702" width="18" height="10"/><rect class="cls-7" x="570" y="702" width="18" height="10"/><rect class="cls-6" x="592" y="702" width="18" height="10"/><rect class="cls-5" x="614" y="702" width="18" height="10"/><rect class="cls-7" x="636" y="702" width="18" height="10"/><rect class="cls-4" x="658" y="702" width="18" height="10"/><polygon class="cls-8" points="681 701 676 696 482 696 477 701 477 698 482 693 676 693 681 698 681 701"/><rect class="cls-2" x="499" y="731" width="28" height="7"/><circle class="cls-2" cx="506" cy="739" r="5"/><circle class="cls-2" cx="520" cy="739" r="5"/><rect class="cls-2" x="631" y="731" width="28" height="7"/><circle class="cls-2" cx="638" cy="739" r="5"/><circle class="cls-2" cx="652" cy="739" r="5"/><rect class="cls-9" x="477" y="722" width="204" height="4"/><polygon class="cls-3" points="890.5 693 697.5 693 692 698.5 692 734.5 695.5 738 892.5 738 896 734.5 896 698.5 890.5 693"/><rect class="cls-5" x="697" y="702" width="18" height="10"/><rect class="cls-4" x="719" y="702" width="18" height="10"/><rect class="cls-6" x="741" y="702" width="18" height="10"/><rect class="cls-7" x="763" y="702" width="18" height="10"/><rect class="cls-5" x="785" y="702" width="18" height="10"/><rect class="cls-4" x="807" y="702" width="18" height="10"/><rect class="cls-7" x="829" y="702" width="18" height="10"/><rect class="cls-6" x="851" y="702" width="18" height="10"/><rect class="cls-4" x="873" y="702" width="18" height="10"/><polygon class="cls-8" points="896 701 891 696 697 696 692 701 692 698 697 693 891 693 896 698 896 701"/><rect class="cls-2" x="714" y="731" width="28" height="7"/><circle class="cls-2" cx="721" cy="739" r="5"/><circle class="cls-2" cx="735" cy="739" r="5"/><rect class="cls-2" x="846" y="731" width="28" height="7"/><circle class="cls-2" cx="853" cy="739" r="5"/><circle class="cls-2" cx="867" cy="739" r="5"/><rect class="cls-9" x="692" y="722" width="204" height="4"/><polygon class="cls-3" points="1105.5 693 912.5 693 907 698.5 907 734.5 910.5 738 1107.5 738 1111 734.5 1111 698.5 1105.5 693"/><rect class="cls-4" x="912" y="702" width="18" height="10"/><rect class="cls-5" x="934" y="702" width="18" height="10"/><rect class="cls-6" x="956" y="702" width="18" height="10"/><rect class="cls-7" x="978" y="702" width="18" height="10"/><rect class="cls-4" x="1000" y="702" width="18" height="10"/><rect class="cls-6" x="1022" y="702" width="18" height="10"/><rect class="cls-5" x="1044" y="702" width="18" height="10"/><rect class="cls-7" x="1066" y="702" width="18" height="10"/><rect class="cls-4" x="1088" y="702" width="18" height="10"/><polygon class="cls-8" points="1111 701 1106 696 912 696 907 701 907 698 912 693 1106 693 1111 698 1111 701"/><rect class="cls-2" x="929" y="731" width="28" height="7"/><circle class="cls-2" cx="936" cy="739" r="5"/><circle class="cls-2" cx="950" cy="739" r="5"/><rect class="cls-2" x="1061" y="731" width="28" height="7"/><circle class="cls-2" cx="1068" cy="739" r="5"/><circle class="cls-2" cx="1082" cy="739" r="5"/><rect class="cls-9" x="907" y="722" width="204" height="4"/><polygon class="cls-3" points="1320.5 693 1127.5 693 1122 698.5 1122 734.5 1125.5 738 1322.5 738 1326 734.5 1326 698.5 1320.5 693"/><rect class="cls-6" x="1127" y="702" width="18" height="10"/><rect class="cls-7" x="1149" y="702" width="18" height="10"/><rect class="cls-4" x="1171" y="702" width="18" height="10"/><rect class="cls-7" x="1193" y="702" width="18" height="10"/><rect class="cls-7" x="1215" y="702" width="18" height="10"/><rect class="cls-6" x="1237" y="702" width="18" height="10"/><rect class="cls-5" x="1259" y="702" width="18" height="10"/><rect class="cls-7" x="1281" y="702" width="18" height="10"/><rect class="cls-4" x="1303" y="702" width="18" height="10"/><polygon class="cls-8" points="1326 701 1321 696 1127 696 1122 701 1122 698 1127 693 1321 693 1326 698 1326 701"/><rect class="cls-2" x="1144" y="731" width="28" height="7"/><circle class="cls-2" cx="1151" cy="739" r="5"/><circle class="cls-2" cx="1165" cy="739" r="5"/><rect class="cls-2" x="1276" y="731" width="28" height="7"/><circle class="cls-2" cx="1283" cy="739" r="5"/><circle class="cls-2" cx="1297" cy="739" r="5"/><rect class="cls-9" x="1122" y="722" width="204" height="4"/><polygon class="cls-3" points="30.5 693 0 693 0 738 32.5 738 36 734.5 36 698.5 30.5 693"/><rect class="cls-7" y="702" width="9" height="10"/><rect class="cls-4" x="13" y="702" width="18" height="10"/><polygon class="cls-8" points="36 701 31 696 0 696 0 693 31 693 36 698 36 701"/><rect class="cls-2" y="731" width="14" height="7"/><circle class="cls-2" cx="7" cy="739" r="5"/><rect class="cls-9" y="722" width="36" height="4"/></g></g></g></g></svg>