<svg xmlns="http://www.w3.org/2000/svg" viewBox="0 0 2328 1505"><defs><style>.cls-1{fill:none;}.cls-2{fill:#002a44;}</style></defs><title>Asset 26</title><g id="Layer_2" data-name="Layer 2"><g id="Terrain_Front" data-name="Terrain Front"><rect class="cls-1" width="2328" height="1455"/><polygon id="Terrain_Front-2" data-name="Terrain Front" class="cls-2" points="2257 893 2191 883 2111.83 919.63 2065.61 916.48 2030.94 937.49 2005.73 974.25 1964.76 1002.62 1890.17 1004.72 1854.45 1037.28 1836.6 1073 1772.52 1073 1708.43 1088.76 1674.82 1112.92 1631.88 1110.3 1594.98 1139.18 1555 1150 1508.84 1151.79 1451 1188.37 1431 1186.95 1406 1198.33 1382 1206.86 1336.05 1189.7 1302.05 1198.23 1287.39 1212.41 1243.39 1213.83 1227 1192.64 1197 1182.69 1175 1162.78 1155 1161.36 1138 1177 1120 1188.37 1097 1184.11 1074 1196.9 1032 1199.75 1009 1182.69 990 1177 982 1158.52 960 1154.25 946 1167.05 937 1182.69 917 1181.27 884 1192.64 855 1177 822 1172 804 1153 771.11 1148.54 748.97 1121.14 712.08 1109.54 695.22 1085.3 666.76 1069.49 616.16 1066.33 591.92 1047.36 566.63 1027.33 528.68 1021.01 507.6 994.66 479.14 976.74 432.77 987.28 403.25 957.77 351.61 949.33 307.34 1004.14 234.61 985.17 209.32 992.55 176.64 1021.01 146.08 1023.12 113.4 1050.52 76 1042 46 1064 0 1066.33 0 1505 2328 1505 2328 925 2257 893"/></g></g></svg>