<svg xmlns="http://www.w3.org/2000/svg" viewBox="0 0 2328 1455"><defs><style>.cls-1{fill:none;}.cls-2{fill:#00416a;}</style></defs><title>Asset 28</title><g id="Layer_2" data-name="Layer 2"><g id="Terrain_Near_Front" data-name="Terrain Near Front"><rect class="cls-1" width="2328" height="1455"/><polygon id="Terrain_Near_Front-2" data-name="Terrain Near Front" class="cls-2" points="2284 544 2213 520 2131.61 567.43 2097.88 623.29 2046.23 615.91 2003.02 661.24 1988.26 722.37 1941.88 785.61 1906.05 777.18 1872.32 800.37 1811.19 821.45 1780.62 859.39 1750.06 855.17 1707.89 886.79 1678.38 897.34 1656.25 937.39 1621.94 952.53 1577.2 966.9 1558.23 990.09 1538.2 1040.68 1500.26 1049.11 1481.28 1060.71 1465.47 1073 1448.61 1073 1437.02 1082.84 1432.8 1094.43 1420.15 1107.08 1404.34 1109.19 1381.17 1118 1353.92 1118 1342.13 1133 1317.66 1138.17 1289.2 1157.8 1225 1170 1204 1180 1174 1184 1148 1174 1117 1177 1086 1161 1060 1164 1042 1149 1011 1144 988.23 1122.74 971.37 1124.86 960.79 1102.64 941.85 1091.01 927.08 1094.18 914.44 1085.72 903.91 1052.93 884.94 1045.52 870.18 1036 853.32 1036 842.78 1026.48 830.13 1015.9 818.53 1011.67 811.16 1003.21 784.81 974.64 731.05 966.18 700.96 951.76 652 945.02 631.98 897.42 590.87 873.09 578.22 838.18 538.17 799.04 521.3 749.32 464.39 713.36 375.85 676.33 322.1 711.24 236.72 727.11 196.67 769.42 149.24 796.93 110.24 840.3 101.81 900.6 46 897 0 906.94 0 1455 2328 1455 2328 574 2284 544"/></g></g></svg>