<svg xmlns="http://www.w3.org/2000/svg" viewBox="0 0 2328 1455"><defs><style>.cls-1{fill:none;}.cls-2{fill:#3b729b;}.cls-3{fill:#63aedd;}</style></defs><title>Asset 29</title><g id="Layer_2" data-name="Layer 2"><g id="Bridge_Back" data-name="Bridge Back"><rect class="cls-1" width="2328" height="1455"/><rect class="cls-2" x="1838" y="744" width="490" height="711"/><path class="cls-3" d="M1654.45,777.41h0c-14.45,0-24.17.92-33.45,4.59,4.43-.71,11.77.05,16.45.05h0c39,0,70.55,25.88,70.55,57.81V1455h17V835.22C1725,803.29,1693.41,777.41,1654.45,777.41Z"/><path class="cls-2" d="M1577.85,744H1544v91h34v.24c0-31.93,32.91-57.81,73.5-57.81h0c40.59,0,73.5,25.88,73.5,57.81V1455h230V744Z"/><rect class="cls-2" y="744" width="490" height="711"/><path class="cls-3" d="M673.55,777.41h0c-39,0-70.55,25.88-70.55,57.81V1455h17V839.86c0-31.93,31.59-57.81,70.55-57.81h0A191.88,191.88,0,0,1,711,784C701.72,780.32,691.64,777.41,673.55,777.41Z"/><path class="cls-2" d="M750,744H373v711H603V835.22c0-31.93,32.91-57.81,73.5-57.81h0c40.59,0,73.5,25.88,73.5,57.81V835h38V744Z"/></g></g></svg>