<svg xmlns="http://www.w3.org/2000/svg" xmlns:xlink="http://www.w3.org/1999/xlink" viewBox="0 0 2328 1455"><defs><style>.cls-1{fill:none;}.cls-2{fill:#432c3c;}.cls-3{fill:#c648d8;}.cls-4{clip-path:url(#clip-path);}.cls-5{fill:#a948bc;}</style><clipPath id="clip-path"><path id="_Clipping_Path_" data-name="&lt;Clipping Path&gt;" class="cls-1" d="M1130.4,302.53V469.32h18.2V302.53Zm9.41,130h0a5.08,5.08,0,0,1-5.18-5l-.84-41.48a5.08,5.08,0,0,1,5-5.18h0a5.08,5.08,0,0,1,5.18,5l.84,41.48A5.08,5.08,0,0,1,1139.81,432.5Z"/></clipPath></defs><title>Asset 33</title><g id="Layer_2" data-name="Layer 2"><g id="Logo"><rect class="cls-1" width="2328" height="1455"/><g id="Raevanna"><g id="a"><path class="cls-2" d="M1326,382.23c-4.49,3.23-10.59,2.5-14.92,6.16-3.09,2.62-4.83,6.58-5.87,10.41-2.47,9.09-.43,19.19,8.38,24.23,7.3,4.17,20.16.67,24.14-7,3.81-7.31,1.19-18.41,1-26.28l-5.89.8c1.59,11.62,1.79,23.24,1.79,34.95,0,3.86,6,3.87,6,0a268.37,268.37,0,0,0-2-36.54c-.46-3.37-6-2.53-5.89.8.19,6.34,1,12.71.51,19.05-.24,3.34-.75,5.12-3.56,7.11-3.45,2.44-9.09,4-13,1.9-7.46-4-7.52-13.11-4.83-19.95,1-2.56,2.36-4.69,4.84-5.93,4-2,8.6-1.83,12.41-4.56,3.11-2.24.11-7.44-3-5.18Z"/></g><g id="n"><path class="cls-2" d="M1268.64,425.54c0-7.57.17-15.15.21-22.72,0-2.95-.41-6.22-.06-9.14.49-4.14,4-5.62,7.89-5.84,8.31-.49,11.87,4,13.57,11.34,2,8.57,1.94,17.62,2,26.37,0,3.86,6,3.87,6,0,0-10.54.23-22.19-3.41-32.24-2.9-8-9.56-11.8-18.12-11.47-8.06.32-13.89,5.06-13.86,13.27,0,10.15-.17,20.29-.18,30.43,0,3.86,6,3.87,6,0Z"/></g><g id="n-2" data-name="n"><path class="cls-2" d="M1226.24,425.54c0-7.57.17-15.15.21-22.72,0-2.95-.41-6.22-.06-9.14.49-4.14,4-5.62,7.89-5.84,8.31-.49,11.87,4,13.57,11.34,2,8.57,1.94,17.62,2,26.37,0,3.86,6,3.87,6,0,0-10.54.23-22.19-3.41-32.24-2.9-8-9.56-11.8-18.12-11.47-8.06.32-13.89,5.06-13.86,13.27,0,10.15-.17,20.29-.18,30.43,0,3.86,6,3.87,6,0Z"/></g><g id="a-2" data-name="a"><path class="cls-2" d="M1198.84,382.23c-4.49,3.23-10.59,2.5-14.92,6.16-3.09,2.62-4.83,6.58-5.87,10.41-2.47,9.09-.43,19.19,8.38,24.23,7.3,4.17,20.16.67,24.14-7,3.81-7.31,1.19-18.41,1-26.28l-5.89.8c1.59,11.62,1.79,23.24,1.79,34.95,0,3.86,6,3.87,6,0a268.37,268.37,0,0,0-2-36.54c-.46-3.37-6-2.53-5.89.8.19,6.34,1,12.71.51,19.05-.24,3.34-.75,5.12-3.56,7.11-3.45,2.44-9.09,4-13,1.9-7.46-4-7.52-13.11-4.83-19.95,1-2.56,2.36-4.69,4.84-5.93,4-2,8.6-1.83,12.41-4.56,3.11-2.24.11-7.44-3-5.18Z"/></g><g id="v"><path class="cls-2" d="M1136,387.6c0,12.66.64,25.29,1.12,37.93.08,2.15,1.84,3.16,3.8,2.89,8.53-1.17,18.86-3.69,23.77-11.52,5.93-9.48,5.38-22.18,1.76-32.33-1.29-3.61-7.09-2.05-5.79,1.6,3,8.55,4.1,19.69-1.15,27.71-4.11,6.27-13.35,7.83-20.18,8.76l3.8,2.89c-.48-12.65-1.09-25.28-1.12-37.93,0-3.86-6-3.87-6,0Z"/></g><g id="e"><path class="cls-2" d="M1098.16,407.23c8.17,2,17.14,2.63,25.05-.78,5.18-2.23,5.42-7.93,4.67-12.92-1.65-11-14.14-11.65-23.26-10.7-4,.42-6.4,1.47-8.18,5.21-2.25,4.72-2.82,10.36-3.14,15.52-.35,5.61-.32,11.72,1.33,17.15,1.18,3.89,4,5.52,7.88,6.35,6.39,1.36,23.68,2.22,24.76-7.11.44-3.83-5.56-3.8-6,0,.08-.71-1.79.49-2.78.78a27.53,27.53,0,0,1-6.13.95c-3,.17-8.19.65-10.8-1.15s-2.3-7.87-2.38-10.85a59.55,59.55,0,0,1,1.24-14.48c.71-3.15,1.05-6,4.2-6.37a33.07,33.07,0,0,1,12.83.66c4,1.14,6.08,5.4,4.66,9.64-1.06,3.15-6.95,3.51-9.76,3.69a41.36,41.36,0,0,1-12.6-1.38c-3.75-.92-5.35,4.87-1.6,5.79Z"/></g><g id="a-3" data-name="a"><path class="cls-2" d="M1071.65,382.23c-4.49,3.23-10.59,2.5-14.92,6.16-3.09,2.62-4.83,6.58-5.87,10.41-2.47,9.09-.43,19.19,8.38,24.23,7.3,4.17,20.16.67,24.14-7,3.81-7.31,1.19-18.41,1-26.28l-5.89.8c1.59,11.62,1.79,23.24,1.79,34.95,0,3.86,6,3.87,6,0a268.37,268.37,0,0,0-2-36.54c-.46-3.37-6-2.53-5.89.8.19,6.34,1,12.71.51,19.05-.24,3.34-.75,5.12-3.56,7.11-3.45,2.44-9.09,4-13,1.9-7.46-4-7.52-13.11-4.83-19.95,1-2.56,2.36-4.69,4.84-5.93,4-2,8.6-1.83,12.41-4.56,3.11-2.24.11-7.44-3-5.18Z"/></g><g id="R"><path class="cls-2" d="M987.51,345.26a620.53,620.53,0,0,1,5.69,80.28c0,3.86,6,3.87,6,0a632.67,632.67,0,0,0-5.91-81.87c-.52-3.81-6.31-2.19-5.79,1.6Z"/><path class="cls-2" d="M1008.07,388.62c5.52-1.79,11.82-2.14,17.11.65,3.73,2,5,6.28,5.92,10.13,2.06,8.53,1.78,17.44,2.26,26.14.21,3.84,6.21,3.86,6,0-.61-11,.12-23-4.28-33.32-4.73-11.12-18.13-12.77-28.61-9.38-3.66,1.19-2.09,7,1.6,5.79Z"/><path class="cls-2" d="M999.76,344.63a41,41,0,0,1,23.4-.69c5.43,1.52,12,4.69,13.82,10.53,4.72,15.42-26.16,17.59-34.69,17.55-3.86,0-3.87,6,0,6,13,.07,45.42-3.88,40.72-24.2-4.19-18.11-30.87-19.39-44.85-15-3.67,1.16-2.1,7,1.6,5.79Z"/></g></g><g id="Bud"><path class="cls-3" d="M1135.26,284.75c-4.16.26-9.43,1.07-10.92,5.66-1.8,5.54,2.05,9.27,7.33,9.86,4.49.5,11.21-.85,12.46-6,1.34-5.5-3.95-9.42-8.87-9.54-2.9-.07-2.9,4.43,0,4.5,2.23.05,6.09,2.22,4,4.86-1.56,2-5.91,2-8.06,1.55s-3.94-2.76-2-4.78c1.4-1.47,4.21-1.52,6.06-1.63C1138.14,289.07,1138.16,284.57,1135.26,284.75Z"/></g><g id="Stem"><g class="cls-4"><path class="cls-5" d="M1133.43,307.11c3.48,52.23,4.31,104.74,4.74,157.06,0,2.89,4.52,2.9,4.5,0-.43-52.33-1.26-104.84-4.74-157.06-.19-2.87-4.69-2.9-4.5,0Z"/></g></g><g id="Petals"><path class="cls-3" d="M1102.7,297.76c-1.3,8.38-3.24,20.84,5.95,25.55,2.83,1.45,6.06,1.83,9,3.1,4.52,2,6.66,5.89,7.89,10.52.68,2.57,4.21,1.84,4.42-.6.8-9.34,1-21.42-8.31-26.76-6.27-3.61-13.06-3.32-14.56-11.8-.5-2.85-4.84-1.64-4.34,1.2,1.35,7.62,6.31,10.37,13,12.88,10.65,4,10.59,14.37,9.73,24.48l4.42-.6c-2.17-8.13-6.82-12.51-14.7-14.88-2.7-.82-5.66-1.49-7.32-4-3.17-4.8-1.59-12.69-.78-17.89C1107.48,296.12,1103.14,294.9,1102.7,297.76Z"/><path class="cls-3" d="M1163.68,312.68c1.42,5.15,3.86,12.41,1.57,17.68-1.24,2.85-4.05,4-6.72,5.14-7.55,3.29-11.89,7.88-13.12,16.32h4.34c-1.19-5.87-2.67-13.25,0-19,1.46-3.11,4.22-4.76,7.16-6.26,6.44-3.3,10.72-6.76,11.18-14.51.17-2.89-4.33-2.88-4.5,0-.5,8.39-7.72,9-13.3,13.23-8.49,6.5-6.76,18.51-4.9,27.7.42,2.09,4,2.21,4.34,0,.68-4.65,2.17-8.81,6.31-11.37,2.74-1.69,6-2.45,8.67-4.18,8.77-5.58,5.57-17.77,3.3-26C1167.25,308.69,1162.91,309.88,1163.68,312.68Z"/></g></g></g></svg>