<svg xmlns="http://www.w3.org/2000/svg" xmlns:xlink="http://www.w3.org/1999/xlink" viewBox="0 0 2328 1455"><defs><style>.cls-1{fill:none;}.cls-2{fill:url(#linear-gradient);}.cls-3{fill:#aff9d9;}.cls-4{fill:#432c3c;}.cls-5{fill:#c648d8;}.cls-6{clip-path:url(#clip-path);}.cls-7{fill:#a948bc;}.cls-8{fill:#63aedd;}.cls-9{fill:#166190;}.cls-10{fill:#244759;}.cls-11{fill:#346584;}.cls-12{fill:#70c0c4;}.cls-13{fill:#8ceff1;}.cls-14{fill:#6696b5;}.cls-15{fill:#63b6d3;}.cls-16{fill:#3b729b;}.cls-17{fill:#00416a;}.cls-18{fill:#002a44;}</style><linearGradient id="linear-gradient" x1="1164" y1="1454.5" x2="1164" y2="0.5" gradientUnits="userSpaceOnUse"><stop offset="0" stop-color="#b4ffff"/><stop offset="0.15" stop-color="#b0fdfe"/><stop offset="0.31" stop-color="#a3f8f9"/><stop offset="0.47" stop-color="#8ff0f2"/><stop offset="0.64" stop-color="#72e4e8"/><stop offset="0.8" stop-color="#4cd5db"/><stop offset="0.96" stop-color="#1fc2cc"/><stop offset="1" stop-color="#14bec8"/></linearGradient><clipPath id="clip-path"><path id="_Clipping_Path_" data-name="&lt;Clipping Path&gt;" class="cls-1" d="M1130.4,303V469.82h18.2V303Zm9.41,130h0a5.08,5.08,0,0,1-5.18-5l-.84-41.48a5.08,5.08,0,0,1,5-5.18h0a5.08,5.08,0,0,1,5.18,5l.84,41.48A5.08,5.08,0,0,1,1139.81,433Z"/></clipPath></defs><title>Artboard 1</title><g id="Background"><g id="Background-2" data-name="Background"><rect class="cls-2" y="0.5" width="2328" height="1454"/></g></g><g id="Clouds"><rect class="cls-1" y="0.5" width="2328" height="1455"/><path class="cls-3" d="M1602,327a23.52,23.52,0,0,1,4.17.37c3.82-11.45,16.62-19.87,31.83-19.87,10.38,0,19.64,3.93,25.69,10.06A42.86,42.86,0,0,1,1678.5,315c8.68,0,16.48,2.41,22,6.24,6.35-16.7,24.33-28.74,45.54-28.74,16.13,0,30.39,7,39.09,17.64A42.46,42.46,0,0,1,1800,307.5c12,0,22.5,4.77,28.69,12,20.62,0,37.31,6.74,37.31,15H1588.5C1588.5,330.36,1594.54,327,1602,327Z"/><path class="cls-3" d="M1484.22,142.63a11.17,11.17,0,0,0-2.81.35c-1.83-3.61-6.38-6.16-11.72-6.16-4.77,0-8.91,2-11.05,5a35,35,0,0,0-9.29-1.17,32.84,32.84,0,0,0-10.65,1.6c-2.53-5.43-9.81-9.35-18.41-9.35a26.87,26.87,0,0,0-6.37.77c-5.52-9.63-17.08-16.27-30.44-16.27-16.13,0-29.62,9.66-33.05,22.6-2.41-.21-5-.32-7.63-.32-13.91,0-25.19,3-25.19,6.78H1491C1491,144.36,1488,142.63,1484.22,142.63Z"/><path class="cls-3" d="M331.89,387.47a20.25,20.25,0,0,1,5.09.64c3.32-6.54,11.58-11.18,21.25-11.18,8.64,0,16.16,3.7,20,9.14A63.38,63.38,0,0,1,395.12,384a59.55,59.55,0,0,1,19.32,2.9c4.59-9.84,17.79-16.95,33.38-16.95a48.72,48.72,0,0,1,11.55,1.39c10-17.47,31-29.49,55.2-29.49,29.25,0,53.71,17.52,59.93,41,4.37-.37,9-.58,13.84-.58,25.22,0,45.67,5.5,45.67,12.3H319.59C319.59,390.62,325.1,387.47,331.89,387.47Z"/><path class="cls-3" d="M241.46,174.43a14.61,14.61,0,0,0-3.67.46c-2.4-4.71-8.35-8.06-15.33-8.06-6.23,0-11.66,2.67-14.45,6.59a45.7,45.7,0,0,0-12.15-1.53A43,43,0,0,0,181.93,174c-3.31-7.09-12.83-12.22-24.07-12.22a35.14,35.14,0,0,0-8.33,1c-7.22-12.6-22.33-21.27-39.81-21.27C88.63,141.5,71,154.13,66.51,171c-3.15-.27-6.5-.42-10-.42-18.19,0-32.93,4-32.93,8.87H250.33C250.33,176.7,246.36,174.43,241.46,174.43Z"/><path class="cls-3" d="M998.17,199a17.12,17.12,0,0,0-3,.27C992.35,191,983,184.85,972,184.85a26.27,26.27,0,0,0-18.7,7.32,31.2,31.2,0,0,0-10.78-1.86,28.22,28.22,0,0,0-16,4.54c-4.62-12.15-17.71-20.92-33.15-20.92-11.74,0-22.12,5.07-28.46,12.84A30.9,30.9,0,0,0,854,184.85c-8.71,0-16.38,3.47-20.88,8.74-15,0-27.16,4.91-27.16,10.92h202C1008,201.48,1003.6,199,998.17,199Z"/><path class="cls-3" d="M2308.14,125.29a25.76,25.76,0,0,0-4.57.4c-4.19-12.54-18.2-21.76-34.86-21.76-11.37,0-21.51,4.3-28.13,11a46.94,46.94,0,0,0-16.22-2.8c-9.51,0-18,2.64-24,6.84-6.95-18.29-26.65-31.48-49.88-31.48-17.67,0-33.28,7.63-42.82,19.33a46.5,46.5,0,0,0-16.33-2.9c-13.1,0-24.64,5.22-31.42,13.14-22.59,0-40.87,7.38-40.87,16.43h303.93C2322.93,129,2316.31,125.29,2308.14,125.29Z"/></g><g id="Logo"><rect class="cls-1" y="0.5" width="2328" height="1455"/><g id="Raevanna"><g id="a"><path class="cls-4" d="M1326,382.73c-4.49,3.23-10.59,2.5-14.92,6.16-3.09,2.62-4.83,6.58-5.87,10.41-2.47,9.09-.43,19.19,8.38,24.23,7.3,4.17,20.16.67,24.14-7,3.81-7.31,1.19-18.41,1-26.28l-5.89.8c1.59,11.62,1.79,23.24,1.79,34.95,0,3.86,6,3.87,6,0a268.37,268.37,0,0,0-2-36.54c-.46-3.37-6-2.53-5.89.8.19,6.34,1,12.71.51,19.05-.24,3.34-.75,5.12-3.56,7.11-3.45,2.44-9.09,4-13,1.9-7.46-4-7.52-13.11-4.83-19.95,1-2.56,2.36-4.69,4.84-5.93,4-2,8.6-1.83,12.41-4.56,3.11-2.24.11-7.44-3-5.18Z"/></g><g id="n"><path class="cls-4" d="M1268.64,426c0-7.57.17-15.15.21-22.72,0-2.95-.41-6.22-.06-9.14.49-4.14,4-5.62,7.89-5.84,8.31-.49,11.87,4,13.57,11.34,2,8.57,1.94,17.62,2,26.37,0,3.86,6,3.87,6,0,0-10.54.23-22.19-3.41-32.24-2.9-8-9.56-11.8-18.12-11.47-8.06.32-13.89,5.06-13.86,13.27,0,10.15-.17,20.29-.18,30.43,0,3.86,6,3.87,6,0Z"/></g><g id="n-2" data-name="n"><path class="cls-4" d="M1226.24,426c0-7.57.17-15.15.21-22.72,0-2.95-.41-6.22-.06-9.14.49-4.14,4-5.62,7.89-5.84,8.31-.49,11.87,4,13.57,11.34,2,8.57,1.94,17.62,2,26.37,0,3.86,6,3.87,6,0,0-10.54.23-22.19-3.41-32.24-2.9-8-9.56-11.8-18.12-11.47-8.06.32-13.89,5.06-13.86,13.27,0,10.15-.17,20.29-.18,30.43,0,3.86,6,3.87,6,0Z"/></g><g id="a-2" data-name="a"><path class="cls-4" d="M1198.84,382.73c-4.49,3.23-10.59,2.5-14.92,6.16-3.09,2.62-4.83,6.58-5.87,10.41-2.47,9.09-.43,19.19,8.38,24.23,7.3,4.17,20.16.67,24.14-7,3.81-7.31,1.19-18.41,1-26.28l-5.89.8c1.59,11.62,1.79,23.24,1.79,34.95,0,3.86,6,3.87,6,0a268.37,268.37,0,0,0-2-36.54c-.46-3.37-6-2.53-5.89.8.19,6.34,1,12.71.51,19.05-.24,3.34-.75,5.12-3.56,7.11-3.45,2.44-9.09,4-13,1.9-7.46-4-7.52-13.11-4.83-19.95,1-2.56,2.36-4.69,4.84-5.93,4-2,8.6-1.83,12.41-4.56,3.11-2.24.11-7.44-3-5.18Z"/></g><g id="v"><path class="cls-4" d="M1136,388.1c0,12.66.64,25.29,1.12,37.93.08,2.15,1.84,3.16,3.8,2.89,8.53-1.17,18.86-3.69,23.77-11.52,5.93-9.48,5.38-22.18,1.76-32.33-1.29-3.61-7.09-2.05-5.79,1.6,3,8.55,4.1,19.69-1.15,27.71-4.11,6.27-13.35,7.83-20.18,8.76l3.8,2.89c-.48-12.65-1.09-25.28-1.12-37.93,0-3.86-6-3.87-6,0Z"/></g><g id="e"><path class="cls-4" d="M1098.16,407.73c8.17,2,17.14,2.63,25.05-.78,5.18-2.23,5.42-7.93,4.67-12.92-1.65-11-14.14-11.65-23.26-10.7-4,.42-6.4,1.47-8.18,5.21-2.25,4.72-2.82,10.36-3.14,15.52-.35,5.61-.32,11.72,1.33,17.15,1.18,3.89,4,5.52,7.88,6.35,6.39,1.36,23.68,2.22,24.76-7.11.44-3.83-5.56-3.8-6,0,.08-.71-1.79.49-2.78.78a27.53,27.53,0,0,1-6.13.95c-3,.17-8.19.65-10.8-1.15s-2.3-7.87-2.38-10.85a59.55,59.55,0,0,1,1.24-14.48c.71-3.15,1.05-6,4.2-6.37a33.07,33.07,0,0,1,12.83.66c4,1.14,6.08,5.4,4.66,9.64-1.06,3.15-6.95,3.51-9.76,3.69a41.36,41.36,0,0,1-12.6-1.38c-3.75-.92-5.35,4.87-1.6,5.79Z"/></g><g id="a-3" data-name="a"><path class="cls-4" d="M1071.65,382.73c-4.49,3.23-10.59,2.5-14.92,6.16-3.09,2.62-4.83,6.58-5.87,10.41-2.47,9.09-.43,19.19,8.38,24.23,7.3,4.17,20.16.67,24.14-7,3.81-7.31,1.19-18.41,1-26.28l-5.89.8c1.59,11.62,1.79,23.24,1.79,34.95,0,3.86,6,3.87,6,0a268.37,268.37,0,0,0-2-36.54c-.46-3.37-6-2.53-5.89.8.19,6.34,1,12.71.51,19.05-.24,3.34-.75,5.12-3.56,7.11-3.45,2.44-9.09,4-13,1.9-7.46-4-7.52-13.11-4.83-19.95,1-2.56,2.36-4.69,4.84-5.93,4-2,8.6-1.83,12.41-4.56,3.11-2.24.11-7.44-3-5.18Z"/></g><g id="R"><path class="cls-4" d="M987.51,345.76A620.53,620.53,0,0,1,993.2,426c0,3.86,6,3.87,6,0a632.67,632.67,0,0,0-5.91-81.87c-.52-3.81-6.31-2.19-5.79,1.6Z"/><path class="cls-4" d="M1008.07,389.12c5.52-1.79,11.82-2.14,17.11.65,3.73,2,5,6.28,5.92,10.13,2.06,8.53,1.78,17.44,2.26,26.14.21,3.84,6.21,3.86,6,0-.61-11,.12-23-4.28-33.32-4.73-11.12-18.13-12.77-28.61-9.38-3.66,1.19-2.09,7,1.6,5.79Z"/><path class="cls-4" d="M999.76,345.13a41,41,0,0,1,23.4-.69c5.43,1.52,12,4.69,13.82,10.53,4.72,15.42-26.16,17.59-34.69,17.55-3.86,0-3.87,6,0,6,13,.07,45.42-3.88,40.72-24.2-4.19-18.11-30.87-19.39-44.85-15-3.67,1.16-2.1,7,1.6,5.79Z"/></g></g><g id="Bud"><path class="cls-5" d="M1135.26,285.25c-4.16.26-9.43,1.07-10.92,5.66-1.8,5.54,2.05,9.27,7.33,9.86,4.49.5,11.21-.85,12.46-6,1.34-5.5-3.95-9.42-8.87-9.54-2.9-.07-2.9,4.43,0,4.5,2.23.05,6.09,2.22,4,4.86-1.56,2-5.91,2-8.06,1.55s-3.94-2.76-2-4.78c1.4-1.47,4.21-1.52,6.06-1.63C1138.14,289.57,1138.16,285.07,1135.26,285.25Z"/></g><g id="Stem"><g class="cls-6"><path class="cls-7" d="M1133.43,307.61c3.48,52.23,4.31,104.74,4.74,157.06,0,2.89,4.52,2.9,4.5,0-.43-52.33-1.26-104.84-4.74-157.06-.19-2.87-4.69-2.9-4.5,0Z"/></g></g><g id="Petals"><path class="cls-5" d="M1102.7,298.26c-1.3,8.38-3.24,20.84,5.95,25.55,2.83,1.45,6.06,1.83,9,3.1,4.52,2,6.66,5.89,7.89,10.52.68,2.57,4.21,1.84,4.42-.6.8-9.34,1-21.42-8.31-26.76-6.27-3.61-13.06-3.32-14.56-11.8-.5-2.85-4.84-1.64-4.34,1.2,1.35,7.62,6.31,10.37,13,12.88,10.65,4,10.59,14.37,9.73,24.48l4.42-.6c-2.17-8.13-6.82-12.51-14.7-14.88-2.7-.82-5.66-1.49-7.32-4-3.17-4.8-1.59-12.69-.78-17.89C1107.48,296.62,1103.14,295.4,1102.7,298.26Z"/><path class="cls-5" d="M1163.68,313.18c1.42,5.15,3.86,12.41,1.57,17.68-1.24,2.85-4.05,4-6.72,5.14-7.55,3.29-11.89,7.88-13.12,16.32h4.34c-1.19-5.87-2.67-13.25,0-19,1.46-3.11,4.22-4.76,7.16-6.26,6.44-3.3,10.72-6.76,11.18-14.51.17-2.89-4.33-2.88-4.5,0-.5,8.39-7.72,9-13.3,13.23-8.49,6.5-6.76,18.51-4.9,27.7.42,2.09,4,2.21,4.34,0,.68-4.65,2.17-8.81,6.31-11.37,2.74-1.69,6-2.45,8.67-4.18,8.77-5.58,5.57-17.77,3.3-26C1167.25,309.19,1162.91,310.38,1163.68,313.18Z"/></g></g><g id="Terrain_Back" data-name="Terrain Back"><rect class="cls-1" y="0.5" width="2328" height="1455"/><polygon id="Terrain_Back-2" data-name="Terrain Back" class="cls-8" points="1502 1167.5 1490 1160.39 1473 1156.84 1461 1151.51 1456 1139.96 1441 1127.53 1426 1107.5 1407 1105.5 1393 1087.5 1367 1089.5 1351 1082.5 1329 1076.5 1314 1088.5 1288 1091.5 1271 1077.5 1255 1077.5 1239 1068.5 1227 1062.5 1214 1055.5 1203 1044.5 1183 1038.5 1178 1030.71 1170 1029.82 1164 1022.5 1147 1019.5 1137 1031.5 1133 1041.5 1115 1050.5 1100 1054.5 1091 1063.5 1082 1073.5 1059 1076.5 1046 1083.5 1030 1082.5 1013 1077.5 998 1074.5 974 1086.5 950 1104.5 939 1113.5 921 1114.5 893 1167.5 0 1167.5 0 1455.5 2328 1455.5 2328 1167.5 1502 1167.5"/></g><g id="Terrain_Near_Back" data-name="Terrain Near Back"><rect class="cls-1" y="0.5" width="2328" height="1455"/><path id="Terrain_Near_Back-2" data-name="Terrain Near Back" class="cls-9" d="M2234.6,546.78l-28.51-11.62-28.51,5.28-19.18-9.86-33.61,1.94-23.23,7.39L2082,533.58l-21.39,10.58L2034.5,551l-16.89,21.12L2007,592.71l-29,11.62-19,14.26-22.17,28.51-58.6,32.73-20.59,35.9-25.34,12.67-45.4,12.67-9,6.86-13.73,31.68L1752,793.34l-9.5,27.45-37.49,8.45-38.19.88L1644,842.79l-28.83,8.55-13.58,31.75L1590,891.54l-14,4.22-14,6.86L1537.69,909l-22.17,19.53h-20.06l-23.76,16.37-17.42,2.64-13.73,19.92-5.28,19.67s-22.17,17.42-22.42,18-12.42,15.31-12.42,15.31l-3.17,10.56-7.92,4.75-10.38,6.86-8.62,35.37-23.93,23.41L1332,1128.07l-25.08,27L1278,1145.5l-14,7-35-3-27,8-19,13h-29l-32-9-13-8-28-2-24-14-25-27-27-6-19.89-12.73-5.27-11.59-6.32-11.59-7.38-1.05L956.65,1050,944,1048.19l-5.27-4.63L926.08,1038l-6.32-25.3-16-17.83-21.9-8.52L868.11,979l-3.16-13.7L850.19,959l-12.65-13.7-5.27-14.76-8.43-14.76-12.65-8.08-8.43-4.57-13.7-8.43-11.59-24.24L762.7,866.2l-10.54-12.65-20-4.22-6.32-22.14-10.54-11.59-10.54-9.49L697.35,804l-4.22-3.16-7.38-1.05-6.32-8.43-3.16-5.27-7.38-3.16-4.22-2.11-5.27-6.32-5.27-8.43L644.65,764l-7.38-12.65-12.65-9.49-26.35-7.38L567.7,716.53l-53.76-6.32-40.05-12.65-40.05-5.27-17.92-22.14L382.19,667l-37.95-16.86-28.46-6.32-32.68-10.54-35.84-35.84-41.11-12.65L173.49,569l-39,2.11-20,8.43H79.68L46,570.5,0,581.61V1455.5H2328V577.62l-41-22.12Z"/></g><g id="Train"><rect class="cls-1" y="0.5" width="2328" height="1455"/><g id="Train-2" data-name="Train"><g id="Chain"><rect class="cls-10" x="676" y="728.5" width="21" height="7"/><rect class="cls-10" x="891" y="728.5" width="21" height="7"/><rect class="cls-10" x="1106" y="728.5" width="21" height="7"/><rect class="cls-10" x="246" y="728.5" width="21" height="7"/><rect class="cls-10" x="461" y="728.5" width="21" height="7"/><rect class="cls-10" x="31" y="728.5" width="21" height="7"/></g><g id="Carts"><polygon class="cls-11" points="460.5 693.5 267.5 693.5 262 699 262 735 265.5 738.5 462.5 738.5 466 735 466 699 460.5 693.5"/><rect class="cls-12" x="267" y="702.5" width="18" height="10"/><rect class="cls-13" x="289" y="702.5" width="18" height="10"/><rect class="cls-14" x="311" y="702.5" width="18" height="10"/><rect class="cls-15" x="333" y="702.5" width="18" height="10"/><rect class="cls-12" x="355" y="702.5" width="18" height="10"/><rect class="cls-14" x="377" y="702.5" width="18" height="10"/><rect class="cls-13" x="399" y="702.5" width="18" height="10"/><rect class="cls-15" x="421" y="702.5" width="18" height="10"/><rect class="cls-12" x="443" y="702.5" width="18" height="10"/><polygon class="cls-8" points="466 701.5 461 696.5 267 696.5 262 701.5 262 698.5 267 693.5 461 693.5 466 698.5 466 701.5"/><rect class="cls-10" x="284" y="731.5" width="28" height="7"/><circle class="cls-10" cx="291" cy="739.5" r="5"/><circle class="cls-10" cx="305" cy="739.5" r="5"/><rect class="cls-10" x="416" y="731.5" width="28" height="7"/><circle class="cls-10" cx="423" cy="739.5" r="5"/><circle class="cls-10" cx="437" cy="739.5" r="5"/><rect class="cls-16" x="262" y="722.5" width="204" height="4"/><polygon class="cls-11" points="245.5 693.5 52.5 693.5 47 699 47 735 50.5 738.5 247.5 738.5 251 735 251 699 245.5 693.5"/><rect class="cls-13" x="52" y="702.5" width="18" height="10"/><rect class="cls-12" x="74" y="702.5" width="18" height="10"/><rect class="cls-14" x="96" y="702.5" width="18" height="10"/><rect class="cls-15" x="118" y="702.5" width="18" height="10"/><rect class="cls-13" x="140" y="702.5" width="18" height="10"/><rect class="cls-12" x="162" y="702.5" width="18" height="10"/><rect class="cls-15" x="184" y="702.5" width="18" height="10"/><rect class="cls-14" x="206" y="702.5" width="18" height="10"/><rect class="cls-12" x="228" y="702.5" width="18" height="10"/><polygon class="cls-8" points="251 701.5 246 696.5 52 696.5 47 701.5 47 698.5 52 693.5 246 693.5 251 698.5 251 701.5"/><rect class="cls-10" x="69" y="731.5" width="28" height="7"/><circle class="cls-10" cx="76" cy="739.5" r="5"/><circle class="cls-10" cx="90" cy="739.5" r="5"/><rect class="cls-10" x="201" y="731.5" width="28" height="7"/><circle class="cls-10" cx="208" cy="739.5" r="5"/><circle class="cls-10" cx="222" cy="739.5" r="5"/><rect class="cls-16" x="47" y="722.5" width="204" height="4"/><polygon class="cls-11" points="675.5 693.5 482.5 693.5 477 699 477 735 480.5 738.5 677.5 738.5 681 735 681 699 675.5 693.5"/><rect class="cls-14" x="482" y="702.5" width="18" height="10"/><rect class="cls-15" x="504" y="702.5" width="18" height="10"/><rect class="cls-12" x="526" y="702.5" width="18" height="10"/><rect class="cls-15" x="548" y="702.5" width="18" height="10"/><rect class="cls-15" x="570" y="702.5" width="18" height="10"/><rect class="cls-14" x="592" y="702.5" width="18" height="10"/><rect class="cls-13" x="614" y="702.5" width="18" height="10"/><rect class="cls-15" x="636" y="702.5" width="18" height="10"/><rect class="cls-12" x="658" y="702.5" width="18" height="10"/><polygon class="cls-8" points="681 701.5 676 696.5 482 696.5 477 701.5 477 698.5 482 693.5 676 693.5 681 698.5 681 701.5"/><rect class="cls-10" x="499" y="731.5" width="28" height="7"/><circle class="cls-10" cx="506" cy="739.5" r="5"/><circle class="cls-10" cx="520" cy="739.5" r="5"/><rect class="cls-10" x="631" y="731.5" width="28" height="7"/><circle class="cls-10" cx="638" cy="739.5" r="5"/><circle class="cls-10" cx="652" cy="739.5" r="5"/><rect class="cls-16" x="477" y="722.5" width="204" height="4"/><polygon class="cls-11" points="890.5 693.5 697.5 693.5 692 699 692 735 695.5 738.5 892.5 738.5 896 735 896 699 890.5 693.5"/><rect class="cls-13" x="697" y="702.5" width="18" height="10"/><rect class="cls-12" x="719" y="702.5" width="18" height="10"/><rect class="cls-14" x="741" y="702.5" width="18" height="10"/><rect class="cls-15" x="763" y="702.5" width="18" height="10"/><rect class="cls-13" x="785" y="702.5" width="18" height="10"/><rect class="cls-12" x="807" y="702.5" width="18" height="10"/><rect class="cls-15" x="829" y="702.5" width="18" height="10"/><rect class="cls-14" x="851" y="702.5" width="18" height="10"/><rect class="cls-12" x="873" y="702.5" width="18" height="10"/><polygon class="cls-8" points="896 701.5 891 696.5 697 696.5 692 701.5 692 698.5 697 693.5 891 693.5 896 698.5 896 701.5"/><rect class="cls-10" x="714" y="731.5" width="28" height="7"/><circle class="cls-10" cx="721" cy="739.5" r="5"/><circle class="cls-10" cx="735" cy="739.5" r="5"/><rect class="cls-10" x="846" y="731.5" width="28" height="7"/><circle class="cls-10" cx="853" cy="739.5" r="5"/><circle class="cls-10" cx="867" cy="739.5" r="5"/><rect class="cls-16" x="692" y="722.5" width="204" height="4"/><polygon class="cls-11" points="1105.5 693.5 912.5 693.5 907 699 907 735 910.5 738.5 1107.5 738.5 1111 735 1111 699 1105.5 693.5"/><rect class="cls-12" x="912" y="702.5" width="18" height="10"/><rect class="cls-13" x="934" y="702.5" width="18" height="10"/><rect class="cls-14" x="956" y="702.5" width="18" height="10"/><rect class="cls-15" x="978" y="702.5" width="18" height="10"/><rect class="cls-12" x="1000" y="702.5" width="18" height="10"/><rect class="cls-14" x="1022" y="702.5" width="18" height="10"/><rect class="cls-13" x="1044" y="702.5" width="18" height="10"/><rect class="cls-15" x="1066" y="702.5" width="18" height="10"/><rect class="cls-12" x="1088" y="702.5" width="18" height="10"/><polygon class="cls-8" points="1111 701.5 1106 696.5 912 696.5 907 701.5 907 698.5 912 693.5 1106 693.5 1111 698.5 1111 701.5"/><rect class="cls-10" x="929" y="731.5" width="28" height="7"/><circle class="cls-10" cx="936" cy="739.5" r="5"/><circle class="cls-10" cx="950" cy="739.5" r="5"/><rect class="cls-10" x="1061" y="731.5" width="28" height="7"/><circle class="cls-10" cx="1068" cy="739.5" r="5"/><circle class="cls-10" cx="1082" cy="739.5" r="5"/><rect class="cls-16" x="907" y="722.5" width="204" height="4"/><polygon class="cls-11" points="1320.5 693.5 1127.5 693.5 1122 699 1122 735 1125.5 738.5 1322.5 738.5 1326 735 1326 699 1320.5 693.5"/><rect class="cls-14" x="1127" y="702.5" width="18" height="10"/><rect class="cls-15" x="1149" y="702.5" width="18" height="10"/><rect class="cls-12" x="1171" y="702.5" width="18" height="10"/><rect class="cls-15" x="1193" y="702.5" width="18" height="10"/><rect class="cls-15" x="1215" y="702.5" width="18" height="10"/><rect class="cls-14" x="1237" y="702.5" width="18" height="10"/><rect class="cls-13" x="1259" y="702.5" width="18" height="10"/><rect class="cls-15" x="1281" y="702.5" width="18" height="10"/><rect class="cls-12" x="1303" y="702.5" width="18" height="10"/><polygon class="cls-8" points="1326 701.5 1321 696.5 1127 696.5 1122 701.5 1122 698.5 1127 693.5 1321 693.5 1326 698.5 1326 701.5"/><rect class="cls-10" x="1144" y="731.5" width="28" height="7"/><circle class="cls-10" cx="1151" cy="739.5" r="5"/><circle class="cls-10" cx="1165" cy="739.5" r="5"/><rect class="cls-10" x="1276" y="731.5" width="28" height="7"/><circle class="cls-10" cx="1283" cy="739.5" r="5"/><circle class="cls-10" cx="1297" cy="739.5" r="5"/><rect class="cls-16" x="1122" y="722.5" width="204" height="4"/><polygon class="cls-11" points="30.5 693.5 0 693.5 0 738.5 32.5 738.5 36 735 36 699 30.5 693.5"/><rect class="cls-15" y="702.5" width="9" height="10"/><rect class="cls-12" x="13" y="702.5" width="18" height="10"/><polygon class="cls-8" points="36 701.5 31 696.5 0 696.5 0 693.5 31 693.5 36 698.5 36 701.5"/><rect class="cls-10" y="731.5" width="14" height="7"/><circle class="cls-10" cx="7" cy="739.5" r="5"/><rect class="cls-16" y="722.5" width="36" height="4"/></g></g></g><g id="Bridge_Back" data-name="Bridge Back"><rect class="cls-1" y="0.5" width="2328" height="1455"/><rect class="cls-16" x="1838" y="744.5" width="490" height="711"/><path class="cls-8" d="M1654.45,777.91h0c-14.45,0-24.17.92-33.45,4.59,4.43-.71,11.77.05,16.45.05h0c39,0,70.55,25.88,70.55,57.81V1455.5h17V835.72C1725,803.79,1693.41,777.91,1654.45,777.91Z"/><path class="cls-16" d="M1577.85,744.5H1544v91h34v.24c0-31.93,32.91-57.81,73.5-57.81h0c40.59,0,73.5,25.88,73.5,57.81V1455.5h230v-711Z"/><rect class="cls-16" y="744.5" width="490" height="711"/><path class="cls-8" d="M673.55,777.91h0c-39,0-70.55,25.88-70.55,57.81V1455.5h17V840.36c0-31.93,31.59-57.81,70.55-57.81h0A191.88,191.88,0,0,1,711,784.5C701.72,780.82,691.64,777.91,673.55,777.91Z"/><path class="cls-16" d="M750,744.5H373v711H603V835.72c0-31.93,32.91-57.81,73.5-57.81h0c40.59,0,73.5,25.88,73.5,57.81v-.22h38v-91Z"/></g><g id="Terrain_Near_Front" data-name="Terrain Near Front"><rect class="cls-1" y="0.5" width="2328" height="1455"/><polygon id="Terrain_Near_Front-2" data-name="Terrain Near Front" class="cls-17" points="2284 544.5 2213 520.5 2131.61 567.93 2097.88 623.79 2046.23 616.41 2003.02 661.74 1988.26 722.87 1941.88 786.11 1906.05 777.68 1872.32 800.87 1811.19 821.95 1780.62 859.89 1750.06 855.67 1707.89 887.29 1678.38 897.84 1656.25 937.89 1621.94 953.03 1577.2 967.4 1558.23 990.59 1538.2 1041.18 1500.26 1049.61 1481.28 1061.21 1465.47 1073.5 1448.61 1073.5 1437.02 1083.34 1432.8 1094.93 1420.15 1107.58 1404.34 1109.69 1381.17 1118.5 1353.92 1118.5 1342.13 1133.5 1317.66 1138.67 1289.2 1158.3 1225 1170.5 1204 1180.5 1174 1184.5 1148 1174.5 1117 1177.5 1086 1161.5 1060 1164.5 1042 1149.5 1011 1144.5 988.23 1123.24 971.37 1125.36 960.79 1103.14 941.85 1091.51 927.08 1094.68 914.44 1086.22 903.91 1053.43 884.94 1046.02 870.18 1036.5 853.32 1036.5 842.78 1026.98 830.13 1016.4 818.53 1012.17 811.16 1003.71 784.81 975.14 731.05 966.68 700.96 952.26 652 945.52 631.98 897.92 590.87 873.59 578.22 838.68 538.17 799.54 521.3 749.82 464.39 713.86 375.85 676.83 322.1 711.74 236.72 727.61 196.67 769.92 149.24 797.43 110.24 840.8 101.81 901.1 46 897.5 0 907.44 0 1455.5 2328 1455.5 2328 574.5 2284 544.5"/></g><g id="Bridge_Front" data-name="Bridge Front"><rect class="cls-1" y="0.5" width="2328" height="1455"/><path class="cls-8" d="M921.4,778.5H910.6c-39.38,0-63.32,26.57-63.6,58.4v618.6h12V836.9c-.26-30.27,36.3-56,73-58.4C930.11,778.38,923.33,778.5,921.4,778.5Z"/><path class="cls-8" d="M1416.2,778.5H1409c-1.93,0-13.11.88-15,1,36.7,2.36,75.26,27.13,75,57.4v618.6h12V836.9C1480.72,805.07,1455.58,778.5,1416.2,778.5Z"/><path class="cls-16" d="M1578,744.5H750v711h97v-619c0-31.85,32.91-57.67,73.5-57.67h0c40.59,0,73.5,25.82,73.5,57.67v619h97v-619c0-31.85,32.91-57.67,73.5-57.67h0c40.59,0,73.5,25.82,73.5,57.67v619h96v-619c0-31.85,32.91-57.67,73.5-57.67h0c40.59,0,73.5,25.82,73.5,57.67v619h97v-711Z"/></g><g id="Terrain_Front" data-name="Terrain Front"><rect class="cls-1" y="0.5" width="2328" height="1455"/><polygon id="Terrain_Front-2" data-name="Terrain Front" class="cls-18" points="2257 893.5 2191 883.5 2111.83 920.13 2065.61 916.98 2030.94 937.99 2005.73 974.75 1964.76 1003.12 1890.17 1005.22 1854.45 1037.78 1836.6 1073.5 1772.52 1073.5 1708.43 1089.26 1674.82 1113.42 1631.88 1110.8 1594.98 1139.68 1555 1150.5 1508.84 1152.29 1451 1188.87 1431 1187.45 1406 1198.83 1382 1207.36 1336.05 1190.2 1302.05 1198.73 1287.39 1212.91 1243.39 1214.33 1227 1193.14 1197 1183.19 1175 1163.28 1155 1161.86 1138 1177.5 1120 1188.87 1097 1184.61 1074 1197.4 1032 1200.25 1009 1183.19 990 1177.5 982 1159.02 960 1154.75 946 1167.55 937 1183.19 917 1181.77 884 1193.14 855 1177.5 822 1172.5 804 1153.5 771.11 1149.04 748.97 1121.64 712.08 1110.04 695.22 1085.8 666.76 1069.99 616.16 1066.83 591.92 1047.86 566.63 1027.83 528.68 1021.51 507.6 995.16 479.14 977.24 432.77 987.78 403.25 958.27 351.61 949.83 307.34 1004.64 234.61 985.67 209.32 993.05 176.64 1021.51 146.08 1023.62 113.4 1051.02 76 1042.5 46 1064.5 0 1066.83 0 1454.5 2328 1454.5 2328 925.5 2257 893.5"/></g></svg>